<svg width="404" height="650" viewBox="0 0 404 650" fill="none" xmlns="http://www.w3.org/2000/svg">
<path d="M161.5 177.8C160.9 180.4 166.4 187.9 171.9 192L175.4 194.5H36L33.0996 197.3C31.4995 198.8 27.4995 203 24.0996 206.7L18 213.5L18.0996 334.7C18.0996 401.4 18.5996 460.5 19.0996 466C22.3996 502.2 38.6004 535.5 66.4004 563C98.7003 595.1 134 613.6 184.2 625C192.6 626.9 200.299 628.5 201.3 628.5C205.1 628.5 235.899 621.4 246.1 618.2C262.5 612.9 278.7 605.4 296.4 594.8C311.8 585.5 321.8 577.7 335.3 564.5C357.4 543 371.3 520.2 379 492.8C385.1 471.1 385 473.599 385 337.6V213.6L367.7 194.5H228.1L235.1 187.7C241.299 181.7 242 180.5 241.4 178.2L240.8 175.5L308.1 175.6H375.5L403.1 205.6L402.7 336.8C402.4 456.4 402.2 468.8 400.7 477.5C395.9 503.5 388.2 523.6 375.5 543.5C361.7 565.1 347.32 578.198 325 595.7C309.648 607.739 300.291 613.729 282.967 622.7C253.16 638.135 201.3 649.5 201.3 649.5C201.182 649.465 139.682 631.392 121.6 622.7C103.5 614 91.5997 606.8 76.7998 595.7C31.5998 561.8 5.7 516.8 1 464.1C0.400019 457.598 0 402.299 0 330C0 211.1 0.100391 206.9 1.90039 204C2.90056 202.4 7.09987 197.6 11.0996 193.4C15.1996 189.2 20.6002 183.4 23.2002 180.6L27.9004 175.5H162L161.5 177.8ZM219.4 449.7C220.4 457.4 220.9 464.8 221.5 476.5C221.8 482.8 222.3 490.5 222.5 493.5C222.7 496.5 223.2 504.6 223.5 511.5C223.8 518.4 224.3 526.9 224.5 530.5C224.7 534.1 225.4 545.6 226 556C226.5 566.5 227.2 576.6 227.5 578.5C227.7 580.4 228.2 588.8 228.5 597C228.9 605.3 229.3 613.599 229.6 615.6C230 618.9 229.7 619.4 227.3 620C223.799 620.8 200.8 625.5 200.6 625.4C200.6 625.3 196.7 624.4 192 623.4C187.3 622.3 182 621.2 180.1 620.8L176.7 620.2L177.4 603.1C177.8 593.7 178.3 584.2 178.5 582C178.9 577.9 179.6 566.3 180.6 549C182.5 512.501 186.9 447.404 187.5 446.5C188.2 445.4 194.8 445.1 197.4 446.1C198.8 446.6 199 449.201 199.1 463.9C199.1 484.6 200.5 483.2 201.5 461.4L202.2 445.8L218.9 445.4L219.4 449.7ZM225 484.9C222.3 440.3 222.1 444.5 227.4 444.5C231.7 444.5 231.8 444.6 232.8 448.8C235.1 457.9 238.3 482.1 241 512C241.6 518.6 242.3 525.1 242.5 526.5C243.6 533.8 251.2 612.7 250.8 613C250.296 613.401 234.502 618.499 233.7 618.5C233.3 618.5 232.8 617.9 232.5 617.3C232.3 616.599 231.9 608.999 231.5 600.5C231.2 592 230.7 582.5 230.5 579.5C230.2 576.5 229.3 561.4 228.5 546C227.6 530.6 226 503.1 225 484.9ZM178.5 444.5C180.9 444.5 183.1 444.8 183.4 445.3C183.6 445.7 183.5 451 183 457C182.5 463.1 181.9 473 181.5 479C181.2 485.1 180.5 496.3 180 504C178.2 530.2 174 608.599 174 615.3C174 618.7 172.9 619.2 168 617.5C166.6 617 163.7 616.1 161.5 615.6C154.6 613.7 154.8 614.4 156.4 599.4C157.2 592 158.8 576.6 159.9 565C167.9 482.4 171.1 454.5 173.6 446.3C174 444.9 175.2 444.5 178.5 444.5ZM142.7 497.2C145.1 495 147.301 493.4 147.601 493.8C148 494.2 147.101 500.901 145.601 508.7C144.201 516.6 140.5 537.4 137.5 555C132.2 585.499 130.5 595.2 129.4 600.3C129.242 601.251 128.705 602.075 128.141 602.376C128.475 602.985 125.759 602.014 122.8 600.4C121.291 599.61 119.991 598.818 119.377 598.361C118.863 598.081 118.336 597.792 117.799 597.495C117.769 597.498 117.736 597.5 117.7 597.5C117.5 597.5 113.7 595.4 109.4 592.7C103.405 589.12 95.3083 583.437 88.0215 577.916C83.0473 574.194 78.6191 570.643 75.4326 567.795C72.2065 564.972 70.1561 562.862 70.0996 562.1C70.0834 562.033 70.1662 562.055 70.3369 562.152C70.2967 562.017 70.2838 561.899 70.2998 561.8C70.4028 561.197 85.8019 547.298 104.5 531C123.2 514.6 140.4 499.5 142.7 497.2ZM253 470.2C253 469.7 255.2 471.2 257.9 473.6C264.8 479.8 265.201 480.1 270.601 482.8C282.301 488.7 294.401 493.5 297.601 493.5C299.1 493.5 300 494.3 300.5 496.2C300.8 497.7 302.2 499.9 303.5 501.1C304.8 502.3 306.201 504.6 306.601 506C307.601 510.1 302.3 545.8 300.5 546.8C299.7 547.2 299 548.9 299 550.5C299 554 296.8 553.7 322.8 553.5C333.821 553.402 340.656 553.686 340.986 554.257C340.995 554.267 341 554.281 341 554.3C341 554.734 339.783 556.155 337.804 558.154C332.63 563.431 322.349 572.645 315.9 577.5C315.315 577.947 314.7 578.407 314.061 578.88C313.45 579.346 312.862 579.788 312.3 580.2C304.641 585.861 289.498 595.47 283.658 598.531C280.358 600.365 277.973 601.5 277.2 601.5C276.8 601.5 275.5 595.5 274.3 588.2C269.3 559.1 259.1 502.6 254.9 481.1C253.9 475.7 253 470.801 253 470.2ZM302 550C302 548.7 304.6 548.5 322.3 548.7C349.3 549.1 349.1 550.9 322 551.3C304.5 551.5 302 551.3 302 550ZM381.2 288.5C381.8 288.5 382 322.2 381.7 378.3L381.3 468L378.7 480.1C375.5 494.6 371.3 507 365.5 518.7C364.584 520.532 363.441 522.629 362.173 524.838C362.019 525.155 361.829 525.542 361.6 526C360.8 527.7 359.4 529.9 358.5 531C358.487 531.017 358.474 531.033 358.461 531.049C357.79 532.131 357.111 533.206 356.436 534.258C355.92 535.186 354.805 536.858 353.52 538.683C350.889 542.559 348.574 545.642 347.3 546.8C345.4 548.4 345.3 548.4 343.8 546.8C342.9 545.799 341.901 542.8 341.601 540C341.201 537.3 340.3 530.3 339.5 524.5C336.6 504.1 336.5 506.2 340.4 501.9C343.6 498.4 344 497.4 344 492.4C344 486.5 343.3 485.5 338.9 485.5C337.5 485.5 337 486.2 337 488.1C337 491.2 334.7 490.9 334.2 487.8C334 486.4 332.9 485.5 330.8 485.1C327.2 484.4 326 485 326 487.6C326 488.6 325.6 489.5 325.2 489.5C324.7 489.5 324.3 487.3 324.2 484.5C324.1 481 324.5 479.5 325.4 479.5C326.101 479.5 328.201 478.7 330.101 477.8C333.4 476.1 333.4 476 331 475.7C329.7 475.5 328.4 475.8 328.2 476.4C327.6 478.1 324 477.7 324 476C324 475 325 474.5 326.8 474.5C329.6 474.5 334 472.1 334 470.5C334 470 331.8 469.3 329 468.9C326.3 468.5 324.301 467.8 324.601 467.3C325.3 466.1 323.1 463.5 321.4 463.5C320.4 463.5 320.2 464.6 320.5 467.8C320.7 470.1 321.2 475.9 321.5 480.8C321.9 488.1 321.8 489.5 320.5 489.5C319.6 489.5 319 488.6 319 487C319 485.1 318.5 484.5 316.8 484.5C312.1 484.5 310.1 485.6 310.3 488C310.4 489.3 310.1 490.4 309.5 490.4C308.3 490.4 308.4 489.299 310.5 478.5C311.8 472.4 312.3 464.4 312.4 450.4C312.5 431.001 312.5 430.8 314.5 432.1C315.6 432.9 317.5 433.5 318.7 433.5C320.3 433.5 321 434.1 321 435.5C321 438.4 327.201 440.8 331.601 439.6C334.1 438.9 335.201 439 336.101 440.1C337.001 441.2 337 441.9 336.2 442.7C334.2 444.7 334.7 452.2 337 454.5C338.6 456.1 338.8 456.9 337.8 458.4C336.2 461 337.5 463.7 340.2 463.3C342.2 463 342.5 462.4 342.5 458.3C342.5 455.8 342.8 453.401 343.3 452.9C344.5 451.6 344.101 445.2 342.601 443.6C340.701 441.5 341.7 436.5 343.9 436.5C346.2 436.5 350 432.4 350 429.9C350 427.6 350.9 426.3 353.5 424.9C356.1 423.4 357.7 416.9 356.101 414.2C355.201 412.8 355.1 412 355.9 411.2C357.5 409.6 357.2 404.2 355.5 401.9C354.7 400.9 354 399.2 354 398.2C354 396.9 353.3 396.5 351.2 396.7C348.4 396.9 343.7 394.2 340.9 390.9C339.6 389.3 339.7 389.3 341.5 390.2C344 391.5 347 391 352 388.5C357.1 385.9 365 378 365 375.6C365 374.6 365.7 373.5 366.4 373.2C368.4 372.4 371.301 366.7 370.601 364.8C370.301 364 370.7 362.4 371.5 361.2C372.3 360 373 357.8 373 356.3C373 352.8 370.2 352.5 367.4 355.6C363.6 359.8 357.1 363.4 350.4 365.1C345 366.5 342.8 367.6 340.3 370.4L337 373.9V369.6C337 363.6 335.6 361.5 331.601 361.5C329.201 361.5 327.301 362.4 325.101 364.4C322.501 366.8 321.5 367.2 319.2 366.5C317.7 366 314 364.9 311 364.1C308 363.2 304.3 361.5 302.7 360.3L300 358L327.2 334.5C342.1 321.6 360.2 305.9 367.3 299.8C374.4 293.6 380.7 288.5 381.2 288.5ZM335.101 512.2C335.401 514 336 518.2 336.4 521.6L337.101 527.7L329.3 527.5C319.2 527.2 317.801 527.3 318.4 528.3C318.6 528.7 322.7 529 327.3 528.8C332.999 528.7 336.199 529 336.8 529.8C337.6 530.7 340 543 340 545.9C339.998 546.2 337.299 546.5 334 546.5H328V542.7C328 538.1 325.7 534.5 322.7 534.5C319 534.5 317.601 536.2 317.101 541.2L316.5 546L304.7 546.6L305.3 542.8C305.6 540.7 306.201 536.6 306.601 533.8C307.001 530.9 307.8 528.5 308.4 528.5C309.2 528.5 309.2 528.3 308.4 527.7C307.5 527.2 307.601 524.8 308.601 518.6C309.301 514 310.2 510 310.5 509.6C310.901 509.3 316.4 509 322.8 509H334.4L335.101 512.2ZM319 542.6C319 535.8 324.401 534.5 325.601 541C326.401 545.3 325.6 546.5 321.9 546.5C319.2 546.5 319 546.2 319 542.6ZM329.4 513.1C328.1 513.2 326.6 518 327.3 519.9C328.1 521.8 330.9 522 331.5 520.3C332.2 518.5 330.6 513 329.4 513.1ZM316.101 513.5C314.301 513.5 314 514.1 314 517.6C314 520.899 314.3 521.6 315.8 521.3C317 521.1 317.6 519.9 317.8 517.2C318.1 514 317.8 513.5 316.101 513.5ZM317.601 503.2C326.4 502.6 335 503.4 335 504.9C334.996 506.1 310.1 506.5 309.4 505.3C308.601 504.1 310.501 503.6 317.601 503.2ZM76.7998 455.5C77.1998 455.5 78.9 459.4 80.5 464.3L83.5 473L103.5 474L97.6006 478.5C94.4008 481 90.8004 483.699 89.7002 484.6L87.6006 486.2L90.7002 495.9C92.3995 501.198 93.5993 505.497 93.4004 505.5C93.2004 505.5 89.6 503 85.5 500C81.5001 497 77.6 494.5 77 494.5C76.3994 494.501 72.4996 497 68.5 500C64.4027 502.998 60.8049 505.497 60.6006 505.5C60.3006 505.5 60.8006 503.3 61.6006 500.6C62.4006 497.9 63.7 493.8 64.5 491.5C65.3 489.2 66 486.9 66 486.5C65.9996 486.1 62.3998 483.1 58 479.9L50 474L70.5 473.4L73.2998 464.5C74.7993 459.502 76.3992 455.502 76.7998 455.5ZM315.8 498.1C326.5 497.3 339 498.3 338.4 499.9C337.798 501.5 307.004 501.5 307 499.9C307 499.2 310.3 498.5 315.8 498.1ZM312.8 490.3C313.2 486.5 317 486.3 317 490C317 492.4 317.3 492.5 322.4 492.5C327.3 492.5 327.8 492.3 328.4 490C329.2 486.8 332 486.7 332 489.9C332 491.8 332.6 492.4 335 492.7C338.1 493.2 340 492 340 489.8C340 489.1 340.5 488.5 341 488.5C341.6 488.5 342 490.2 342 492.3V496H322.5C305.502 496 303 495.8 303 494.4C303 493.2 304.1 492.9 307.8 492.9C312.2 493 312.5 492.8 312.8 490.3ZM122.7 409.5C124.2 409.5 130 414.1 130.5 415.8C131.9 420.4 132.2 446.399 131.1 458.1C129.9 469.499 126.9 483.899 124.9 487.6C124 489.4 122.9 489.9 117.4 491C115.2 491.4 113.7 491 111.8 489.6C109.4 487.599 107 481.199 107 476.6C107 472.6 108.8 474.6 109.4 479.3C110.1 484.5 112.3 488.5 114.5 488.5C118.7 488.5 122.2 463.7 122.4 432.8C122.4 420 122.6 409.5 122.7 409.5ZM293.1 408.2C296.9 406.7 297.1 406.7 296.5 408.3C293.5 415.9 293.1 456.2 296 472.8C297.8 483.699 299.4 487.9 301.3 487.2C301.9 487 302.9 485.4 303.4 483.7C303.74 482.479 304.216 481.441 304.613 480.9C305.964 476.179 307.125 470.502 308 463.5L308.9 456L308.5 464.7C308.061 472.234 307.085 478.804 306.007 481.79C306.13 483.379 305.309 486.09 303.9 487.9C301.8 490.6 297.7 491.3 293.4 489.5C288.7 487.6 285.3 470.2 285.1 446.5C284.9 431.6 286 419.6 288.1 412.9C288.8 410.601 290.1 409.4 293.1 408.2ZM247.1 409.1C247.5 408.7 250.7 409.6 254.2 411.3C257.6 412.9 261.5 414.6 262.8 414.9C265 415.6 264.7 416 258.8 421.7C255.3 425 253.9 426.8 255.5 425.7C258.9 423.5 265.9 419.5 266.4 419.5C266.599 419.502 265.9 421.201 264.9 423.3C262.6 428.1 261.4 435.8 262 442L262.5 447L263.8 439C265.4 429.9 269.9 419.4 273.2 417.3C275.8 415.7 284.1 412.3 284.5 412.7C284.6 412.902 284.2 416.401 283.4 420.5C280.8 435 282.3 469.1 286 481.5C287.6 487.1 287.6 487.1 282.6 485.3C280.999 484.7 277.1 482.7 273.8 480.9C270.5 479.001 267.401 477.501 266.9 477.5C266.613 477.5 264.622 475.793 262.038 473.349C261.695 473.041 261.347 472.724 261 472.4C259.474 470.976 258.44 469.939 258.003 469.409C252.096 463.535 250.829 461.487 246.9 452C241.5 439.3 240.2 432.1 242.5 428.8C243.4 427.6 244.6 422.8 245.2 418.3C245.8 413.7 246.7 409.6 247.1 409.1ZM158.4 407.7C158.501 407.904 159.1 411.803 159.8 416.4C160.4 420.9 161.6 426.1 162.5 427.8C164.4 431.6 164.4 438.7 162.6 442.8C161.8 444.6 158.8 451.6 155.9 458.5C149.8 472.7 145.6 477.8 134.8 483.5C128.7 486.8 128.7 486.8 129.4 484.4C133.5 471.001 135.9 442.5 134.4 426.4C133.801 420.704 133.5 415.906 133.6 415.7C133.7 415.5 135.1 416.1 136.7 417.1C144.2 421.8 147.1 426.4 149.1 436.6C150.9 445.8 152.4 446.6 151.6 437.8C150.8 428.9 148.1 422.4 143.3 418C140.7 415.7 140 414.5 141.1 414.5C142 414.5 146.2 412.9 150.5 411C154.8 409 158.3 407.6 158.4 407.7ZM105.2 444.6C105.5 430.101 106.1 424.7 107.3 426.6C108.1 427.8 106.7 461.5 105.8 461.5C105.2 461.498 105 455.398 105.2 444.6ZM309.3 450.5C309.3 448 309.5 447 309.7 448.3C309.9 449.5 309.9 451.5 309.7 452.8C309.5 454 309.3 453 309.3 450.5ZM338.5 449.5C337.7 448.2 338.901 446.3 340.101 447C341.3 447.8 341.3 450.499 340.101 450.5C339.501 450.5 338.8 450.1 338.5 449.5ZM171.8 433C186 435.1 217.4 435.1 232.9 433C237.4 432.4 237.8 432.5 238.2 434.7C239.1 439.9 238.599 440.1 226.6 441.4C213.999 442.6 189.6 442.7 177.5 441.4C167.2 440.3 167 440.2 167 435.9V432.3L171.8 433ZM325.8 433.5C326.3 433.5 327.4 434.1 328.5 434.8C330.7 436.5 329.2 437.7 326.7 436.4C325 435.4 324.4 433.5 325.8 433.5ZM345.601 411.9C348.001 408.8 348.2 408.7 349.9 410.3C351.6 411.9 351.6 412.1 349.9 414C348.9 415.1 347.8 418.4 347.4 421.2C347.1 424.1 346.3 426.2 345.8 425.9C345.3 425.501 343.6 426.4 342.2 427.7C340.7 429 338.1 431 336.5 432.1C333.5 434.199 333.4 434.2 331.101 432.4C329.701 431.3 327.2 430.5 325 430.5C321.6 430.5 321.201 430.2 320.601 427.5C320.301 425.6 319.2 424.1 317.7 423.6C316.3 423.1 315 421.7 314.7 420.5C314.2 418.4 314.4 418.3 318.3 418.9C320.6 419.3 323.2 419.7 324 419.8C325.9 420 336.7 417.7 340.3 416.3C341.9 415.7 344.201 413.7 345.601 411.9ZM343 431.6C343 430.2 344.801 429.3 346.101 430.1C346.9 430.5 346.8 431 345.9 431.6C344.1 432.7 343 432.7 343 431.6ZM185.8 377.8C187.1 375 187.7 374.6 189.9 375.2C193.201 376.1 210.7 376.1 214 375.3C216.2 374.7 217 375.3 220.8 381.3C225.4 388.5 232.9 397 239.7 402.5L243.9 406L242.9 413.5C241.8 422.1 239.5 428.2 237.1 428.9C234 429.8 229 430.7 229 430.3C229 430.099 229.7 427.5 230.5 424.5C231.3 421.5 232 417.7 231.9 416C231.9 413.5 231.6 413.8 229.9 418.5C226.5 427.8 224.9 430.4 222.1 430.9C217.999 431.7 199.3 432.2 190.2 431.8C182.1 431.4 181.9 431.3 180 428.2C178.9 426.4 177.3 422.8 176.4 420C173.1 409.8 172.4 414.5 175.6 425.5C176.3 427.9 176.7 430.1 176.5 430.3C175.6 431.2 168 429.2 166.6 427.6C164.9 425.699 162.4 416.4 161.7 409.5C161.3 405.1 161.4 404.9 166.7 400.6C172.5 395.999 183.3 383.1 185.8 377.8ZM315 425.5C315.5 425.5 316.4 426.4 317 427.5C317.8 429 317.8 429.5 316.7 429.5C315.9 429.5 315 429.2 314.7 428.8C313.7 427.8 313.9 425.5 315 425.5ZM87 405.1C87 402.7 87.2002 402.4 88.5 403.5C89.3 404.2 90 405.6 90 406.7C90.0001 409.7 91.9001 412.5 94 412.5C95 412.5 96.0002 412.1 96.2002 411.6C96.7013 410.099 104.201 405.5 106.101 405.5C107 405.5 108 405 108.2 404.4C108.8 402.7 112 404.1 115.9 407.6C118.9 410.3 119.3 411.4 119.8 417.1C120 420.599 119.9 423.499 119.4 423.5C118.9 423.5 116.8 422.3 114.7 420.8C111.8 418.8 111.301 417.9 112.101 416.9C114.201 414.4 110.4 414.3 101.9 416.5C94.5005 418.4 93.6003 418.4 91.4004 417C89.0004 415.5 87 410.1 87 405.1ZM302 405.7C305.8 402.9 306.1 402.9 305.4 406.4C305.001 408 305.3 409.6 305.9 409.9C307.9 411.1 307.2 413.4 305 412.8C302.5 412.1 302.4 414 304.7 415.4C305.7 415.9 306.3 416.5 306 416.7C303.4 418.8 299.001 421.499 298.101 421.5C297.401 421.5 297.2 420.5 297.4 419.3C297.7 418 298.2 414.9 298.5 412.4C298.9 408.9 299.7 407.3 302 405.7ZM351 419.6C352.3 417.1 354.3 416.8 353.8 419.2C353.6 420.2 352.7 421.1 351.7 421.3C350.1 421.6 350 421.4 351 419.6ZM82 400.5C82.5 400.5 83.2006 401.7 83.6006 403.3C85.3005 410.799 86.3002 414.1 87.2002 415.3C88.7002 417.1 86.5005 416.9 84.6006 415C81.8007 412.2 79.7003 400.501 82 400.5ZM328.4 405.5C329.4 399.3 331.3 400.5 330.8 407C330.1 415.8 326.9 417.8 317.101 415.5C313.401 414.6 311.5 412.6 313 411.1C313.6 410.5 314 409.1 314 407.8C314 405.8 314.301 405.7 316.601 406.6C318.101 407.1 320.7 408.7 322.3 410.1C325.1 412.4 325.501 412.5 326.601 411.1C327.201 410.199 328 407.7 328.4 405.5ZM336 400.5C338.5 400.5 335 414.3 332.3 415.3C331.6 415.5 331 415.2 331 414.6C331 413.999 331.601 411.799 332.4 409.8C333.2 407.7 334.1 404.8 334.4 403.3C334.8 401.7 335.5 400.5 336 400.5ZM76.5 400.5C77.3 400.5 78.3004 402.5 78.9004 405.3C79.5004 407.9 80.2006 411 80.6006 412.3C81.3006 414.6 79.6002 415.5 78.7002 413.3C78.1003 411.7 78.0999 411.6 76.5 405.5C75.4001 401.4 75.4002 400.5 76.5 400.5ZM338.4 407.1C339.6 402.7 340.9 400 341.4 400.5C342.8 401.9 339.001 414.498 337.101 414.5C336.701 414.5 337.3 411.2 338.4 407.1ZM221.6 376.8C219.2 372.1 221.2 372.7 224.6 377.7C228.9 384 236.7 391.6 244.2 396.8C254 403.8 269.6 410.5 276 410.5C277.6 410.5 278.1 410.8 277.4 411.5C275.7 413.2 269.8 413.5 265 412.1C248.4 407.4 229.5 392 221.6 376.8ZM180.6 376.9C181.8 375.3 183 374.3 183.4 374.6C184.5 375.6 174.4 388.8 167.2 395.7C162 400.8 157.8 403.6 150.8 407C140.6 411.9 135.9 413.1 132 411.4C129.7 410.4 130.1 410.1 137.8 407.5C155.1 401.5 171 390.2 180.6 376.9ZM344.101 404.6C345.401 400.3 347 399.1 347 402.5C347 405 343.9 411.5 342.7 411.5C342.2 411.5 342 410.9 342.3 410.1C342.6 409.299 343.401 406.899 344.101 404.6ZM73.1006 408.2C70.6006 404.2 70.1004 400.1 72.4004 402.5C73.8003 404.1 76.3 410.599 75.6006 411.2C75.4006 411.4 74.3005 410.1 73.1006 408.2ZM99.5 402.5C101.462 402.5 103.056 402.568 104.229 402.688C104.613 402.713 104.978 402.75 105.3 402.8C105.57 402.845 105.727 402.892 105.782 402.935C106.394 403.09 106.646 403.282 106.5 403.5C106.2 404.1 105.1 404.5 104.2 404.5C103.3 404.5 100.7 405.6 98.5 407C94.1003 409.7 93.7001 409.8 92.7002 408.9C91.7002 407.8 93.0006 406.5 95.1006 406.5C96.1004 406.5 97 406.1 97 405.5C96.9999 405 96.1004 404.5 95.1006 404.5C94.0006 404.5 92.8 404.1 92.5 403.5C92.1005 402.9 94.7005 402.5 99.5 402.5ZM293.101 366.5C293.6 366.5 294 367.1 294 367.8C294 368.6 294.9 370 296 371C297.1 372 298 373.399 298 374.1C298 376.1 307.301 385.1 311.601 387.3C317 389.9 322.999 390.8 323 388.9C323 387 324.6 387.1 325.4 389.1C326.3 391.3 326.2 391.5 324.4 391.5C323.5 391.5 323.001 392.3 323.101 393.3C323.201 394.2 323.201 395.6 323.101 396.3C323.001 397.7 317.3 397.9 313.8 396.6C311.8 395.9 310.4 396.401 305.9 399.4C303 401.5 300 403 299.3 402.8C298.699 402.6 295.799 403.6 292.8 405C282.6 410.1 283.7 410.4 279.601 400.7C273.701 386.401 273.101 384.1 274.4 382.4C276.1 380.1 292.101 366.5 293.101 366.5ZM323.3 405.5C325 405.5 326 406 326 407C326 408.8 326.1 408.8 323 407L320.5 405.6L323.3 405.5ZM310 403.5C310.6 403.5 311 404.4 311 405.5C311 406.6 310.6 407.5 310 407.5C309.5 407.5 309 406.6 309 405.5C309 404.4 309.5 403.5 310 403.5ZM315.3 400.3C315.9 400 319 400.1 322 400.4L327.5 401L324.101 402.8C320.701 404.5 319.1 404.7 315.8 403.8C313.7 403.3 313.4 400.9 315.3 400.3ZM46.2002 377.7C46.4002 376.8 48.5 381.9 51 389.2C53.4 396.4 55.8002 402.1 56.2002 401.9C56.6002 401.6 57 401.9 57 402.4C56.9997 404.4 54.9995 403.5 54.0996 401.3C53.6995 400 52.2995 396.1 51.0996 392.5C49.7996 388.9 48.0998 384.5 47.2998 382.7C46.4998 380.9 46.0003 378.7 46.2002 377.7ZM86.4004 370.8C87.7004 372.7 87.8996 373.8 87.0996 375.3C85.7996 377.8 86.7002 378.7 89.2002 377.4C92.7002 375.5 95.6998 380.4 92.7998 383.3C91.0998 385 92.5004 385.8 94.9004 384.5C97.3001 383.3 97.6999 384.6 95.5 386.5C93.6001 388.1 90.0004 386.8 90 384.4C90 383.2 89.3 382.5 88 382.5C85.4 382.5 85.4 385.6 88 388C90.5 390.2 95.4995 390.4 97.5996 388.3C98.9996 387 99.4002 387.1 102 389.6C105.4 393 109.2 393.3 112 390.5C114.9 387.6 114.6 385.1 111.5 385.7C108.5 386.3 108.1 384.2 110.6 381.4C111.899 380.001 112.7 379.8 114.1 380.6C116 381.6 116.1 381.5 116.4 379.4C116.4 378.8 117.6 377.5 118.9 376.6C121.9 374.7 121.899 374.501 116.6 388C114.7 393 113.1 397.799 113 398.8C113 400 112.2 400.5 110.2 400.5C107.8 400.5 85.2 398.8 78 398.1C76.6 398 74.8 398.2 74 398.5C73.2 398.9 69.1 399.5 65 399.9L57.5 400.5L54.5 391.2C52.9001 386.2 50.9003 380.701 50.2002 379.2C48.3002 375.3 49.7004 374.4 52.4004 377.8C53.9004 379.7 55.2004 380.4 56.4004 379.9C58.8004 379.001 62.2 382.3 61.5 384.9C61.0001 386.8 61.0001 386.8 62 385.3C62.6 384.3 63.9 383.5 65 383.5C66 383.5 67.0002 383 67.2002 382.3C67.4003 381.7 68.4 381.4 69.2998 381.8C70.4998 382.3 70.8999 383.1 70.5 384.8C69.6 388.2 73.0004 390.9 76.9004 390C81.3002 389.1 85.3995 382.5 81.5996 382.5C79.5997 382.5 77.1002 385.7 78.7998 386.2C81.3998 387.1 79.8001 388 76.2002 387.7C73.0003 387.4 72.4001 387 72.5 385.2C72.6 384 73.3999 382.9 74.2998 382.7C75.1997 382.5 75.6999 381.8 75.5 381.2C75.2 380.5 75.6997 379.1 76.5996 378C77.8996 376.3 78.3002 376.2 80.2002 377.4C82.1999 378.6 82.3001 378.6 81.7002 375.7C81.3002 373.5 81.6004 372 82.9004 370.4L84.7002 368.1L86.4004 370.8ZM333.101 396.5C333.6 396.5 334 397.2 334 398C334 399.5 332.8 400 331.7 398.9C330.9 398.1 331.801 396.5 333.101 396.5ZM365.9 360C369.9 356.4 371 355.8 371 357.4C370.999 359.201 365.7 364.7 360.601 368.1C354.601 372.1 355.9 372.6 363 369C365.8 367.6 367.999 366.8 368 367.3C368 369.5 358.9 375.5 355.5 375.5C354.7 375.5 354 375.9 354 376.4C354.001 376.9 355.901 377.1 358.3 376.8C362.3 376.3 362.4 376.4 360.9 378C359.9 378.9 357.1 380 354.601 380.2C349.901 380.8 349.101 382.5 353.601 382.5C354.9 382.5 356 382.9 356 383.4C355.999 384.9 350.301 385.7 348.101 384.5C345.801 383.3 345.3 384.4 347.2 386.3C348.9 388 345.4 389 342.4 387.6C341 387 339.5 386.5 339 386.5C336.9 386.5 338.201 391.6 341.101 395C342.799 396.899 343.999 398.399 343.9 398.4C343.7 398.3 342.4 398 341 397.8C339.7 397.5 337.1 396.1 335.4 394.7C333.7 393.2 330.6 390.8 328.7 389.2C323.6 385.4 322.8 380.7 326.4 376.1C329.3 372.2 329.5 371.3 327.8 368.6C325.601 365 330.8 361.701 333.8 364.7C334.5 365.4 335 367.4 335 369.3C335 371.1 335.501 373.5 336.101 374.6C337.101 376.5 337.3 376.4 341.4 372.7C344.5 369.9 347.001 368.5 350.101 368C355.7 367.1 361.101 364.3 365.9 360ZM325.8 393.1C327.2 392.2 329.3 394.3 328.7 395.9C327.8 398.2 325 397.9 325 395.6C325 394.5 325.4 393.4 325.8 393.1ZM67.7998 387C67.4998 383.9 67.3996 383.9 64.5996 387L62.2998 389.4L60.0996 387.4C57.6996 385.2 56 385.6 56 388.5C56 392.2 61.8998 393.7 65.7998 391C67.1998 390 67.8998 388.5 67.7998 387ZM293.5 356.7C293.7 356.5 295.8 357.8 298.2 359.8C303.7 364.2 309.4 367.1 314.7 368C316.9 368.3 319.601 369.5 320.601 370.6C322.701 372.9 326.2 373.2 325.4 371C325 370.2 325.3 369.5 325.9 369.5C327.8 369.5 327.1 372.001 324.601 374.4C321.801 377 320.501 382.2 322.101 384.1C323.001 385.2 322.6 385.7 320.5 386.5C317.2 387.8 316 387.8 316 386.5C316 386 316.5 385.5 317 385.5C317.6 385.5 318 385.1 318 384.6C317.999 384.1 316.199 383.8 314 383.9C311.8 383.9 309.5 383.4 308.8 382.7C307.9 381.8 308.3 381.5 310.7 381.5C312.5 381.5 314.2 381.1 314.5 380.5C315.1 379.5 314 379.2 310.3 379.5C307.899 379.6 301 376.7 301 375.5C301 375.1 303.4 375 306.3 375.1L311.5 375.5L305.9 373.5C300.401 371.5 296 368.4 296 366.4C296 365.9 298 366.6 300.5 368C306.8 371.8 308.3 370.6 302.101 366.8C297.601 364 292.401 357.801 293.5 356.7ZM329.2 381.5C329.6 377.5 328.7 376.2 327.601 379.1C326.701 381.5 326.9 385.5 327.9 385.5C328.4 385.5 329 383.7 329.2 381.5ZM99.9004 382.1C101.8 379.8 103 380.1 103 383C103 385.7 102.4 386 100.1 384.6C98.9001 383.8 98.9005 383.399 99.9004 382.1ZM182.601 244.5C183 244.5 182.7 245.1 182.101 245.8C180.201 248.2 177.801 255.799 179.3 255.2C188 251.3 193.9 249.3 197.8 248.8C203.2 248.2 212.7 250.3 219 253.5C223.5 255.8 223.6 255.5 221.5 249.6C219.1 242.8 221.6 245.9 225.2 254.3L228.5 262V287.5C228.6 319.299 228.7 322.8 230 322C230.6 321.6 231.001 315.6 231.101 307.7L231.2 294L232.601 300.5C237.701 323.5 239.9 331.8 245 346.5C248.1 355.6 251.7 365.4 252.8 368.2L255 373.5L247.2 377.4C242.9 379.6 238.801 382 238.101 382.9C237.301 383.8 236.4 384.5 236 384.5C235.6 384.499 234.6 380.799 233.7 376.3C227.9 346 226.7 332 226.4 296.4C226.3 275.1 225.8 262.1 225.2 260.8C223.4 257.5 210.4 252.1 203 251.7C192.6 251.1 181.2 255.2 177.4 261C176 263.1 175.801 265.6 176.101 276.7C176.901 305.9 175.8 329 172.4 355.5C170.601 369.398 168.001 383.496 167.101 383.5C166.801 383.5 165.2 382.6 163.5 381.4C161.9 380.3 157.601 378.1 154.101 376.5C150.101 374.6 148 373.1 148.3 372.3C157.1 352 166.001 322.6 169.101 303.5C170.701 293.8 171.7 296.7 172 312C172.2 321.1 172.401 322.3 173.101 319C173.601 316.8 173.7 304 173.4 290.5C172.9 267.8 173 265.5 174.9 259.1C176.8 252.8 181.201 244.5 182.601 244.5ZM227.5 361.7C227.7 361.9 228.1 363.2 228.5 364.6C229.1 367 228.7 367.4 224.8 369C219.4 371.1 207 373.5 202.2 373.4C200.1 373.3 195.8 372.9 192.5 372.4C186 371.4 177.2 368.8 175.3 367.2C173.8 366.1 173.7 364.6 174.9 362.7C175.6 361.6 177.301 361.8 184.101 364C195.9 367.8 208.3 367.8 219.4 364.1C223.7 362.6 227.399 361.6 227.5 361.7ZM330 366C329.3 366 328.5 366.6 328.3 367.3C328 368 328.7 368.5 330 368.5C331.3 368.5 332 368 331.8 367.3C331.5 366.6 330.7 366 330 366ZM182 327.7C182 325.6 182.4 325.8 187 329.4C195.8 336.3 205.401 336.4 215.101 329.6C222.4 324.5 223.2 326.401 216.5 332.9C214 335.4 212 337.6 212 338C212 339 216.9 335.8 220.2 332.7C221.7 331.301 223.2 330.3 223.4 330.6C223.6 330.8 224.3 334.6 224.9 339L226.101 347L223.3 349.2C221.8 350.5 218 352.9 215 354.5C208.9 358 211.6 357.6 219.9 353.9C226.7 350.801 227 350.9 227 354.6C227 357.2 226.4 357.9 222.7 359.5C211.8 364.3 200.5 365.6 190.5 363.1C185.1 361.7 178.3 359 176.5 357.5C175.9 357 175.5 355.2 175.8 353.5L176.2 350.5L179.5 352.5C182.4 354.3 193.3 358.5 194.9 358.5C195.199 358.499 192.099 356.6 188 354.4C177 348.4 176.6 348 177.4 340.3C178.4 331 178.9 330.7 184.4 334.9C190.9 339.9 192.3 339.4 186.601 334.2C183.801 331.6 182 329 182 327.7ZM186.601 307.6C186.802 307.401 188.001 308.101 189.3 309.3C192 311.9 198.1 314.5 201.4 314.5C202.701 314.5 206.301 313.2 209.4 311.6C212.5 309.9 215 309.1 215 309.7C215 311.7 208.7 316.5 204.101 317.9C199.701 319.3 199.7 319.4 202.8 319.4C204.6 319.5 207.7 318.8 209.7 318C211.7 317.2 213.401 316.6 213.601 316.8C213.8 317.001 211.9 319.4 209.4 322.3C203.6 328.9 205.8 329.1 212.2 322.5C216.9 317.6 217.001 317.6 217.601 320.1C218.101 322 217.6 323.3 215.4 325.7C209.7 331.6 203.5 333.7 196.5 332C189.8 330.3 183.301 323.6 185.101 320.3C186.3 318.1 186.301 318.1 187.9 320.1C190.1 322.8 195 326.5 196.4 326.5C196.9 326.499 195.1 324.1 192.2 321.2C189.3 318.3 187 315.6 187 315.3C187.001 314.9 188.6 315.5 190.5 316.6C195.4 319.5 197 318.5 192.4 315.5C188.8 313.2 185.501 308.7 186.601 307.6ZM289.5 278.5C289.7 278.5 291.3 282.8 293 288L296.101 297.4L316.5 298L308.8 303.8C304.5 307 301 310.3 301 311C301 311.7 302.1 315.7 303.5 319.9C304.9 324.099 305.999 327.998 306 328.6C306 329.2 303.2 327.5 299.8 325C289.6 317.5 290.2 317.6 282.4 323.2C275 328.5 273 329.8 273 329.3C273.001 329.097 274.301 324.698 275.9 319.6L278.8 310.4L273.8 306.5C271.1 304.3 267.5 301.7 265.9 300.8C264.3 299.8 263 298.7 263 298.3C263.002 297.9 267.402 297.5 272.9 297.5H282.7L284.3 293.3C285.1 290.9 286.6 286.6 287.5 283.8C288.4 280.901 289.3 278.501 289.5 278.5ZM130.424 282.645C133.183 282.646 123.917 297.625 117.608 303.341C110.905 309.451 106.469 311.619 97.3008 313.196L90.5977 314.38L94.1465 316.253C101.341 320.096 106.466 323.642 105.878 324.333C104.301 325.91 101.441 324.727 95.4277 320.391C92.077 317.829 88.7265 315.07 88.1338 314.281C87.2466 313.099 86.9499 313.296 86.457 315.069C85.7669 317.73 82.8097 317.829 82.8096 315.168C82.8096 313.887 83.5 313.196 84.6826 313.196C85.7669 313.196 86.8518 312.802 87.1475 312.408C87.4442 311.915 91.2881 311.225 95.625 310.93C100.061 310.535 105.483 309.451 107.75 308.466C115.834 304.819 125.199 294.668 128.255 286.39C128.945 284.321 129.931 282.645 130.424 282.645ZM40.7158 289.741C36.5756 281.759 37.9558 281.857 42.3916 289.839C49.8836 303.045 59.5452 309.551 74.0361 310.832C77.782 311.226 81.1339 311.818 81.3311 312.311C82.0203 313.296 80.8379 316.153 79.6553 316.153C79.1615 316.154 75.9084 318.125 72.2617 320.588C65.3613 325.318 65.558 325.319 62.6006 324.038C60.7279 323.348 60.7284 323.249 63.1924 322.264C64.5727 321.672 67.826 319.899 70.4873 318.224C73.1485 316.548 76.1055 315.168 77.0918 315.168C78.0772 315.168 78.8657 314.774 78.8662 314.281C78.8656 313.887 75.9087 313.197 72.2617 312.901C68.2202 312.507 63.587 311.226 60.334 309.649C53.3349 306.2 44.659 297.428 40.7158 289.741ZM106.271 313.296C110.905 311.916 113.961 312.015 118.2 313.592C122.044 314.971 121.058 316.252 114.848 318.026C110.018 319.307 106.468 319.406 104.3 318.026C101.441 316.45 102.23 314.38 106.271 313.296ZM50.6729 313.296C56.193 311.916 59.0522 311.916 62.9951 313.296C66.2478 314.478 66.5442 314.873 65.2627 316.844C63.3892 319.8 50.7723 318.913 47.5186 315.76C46.4342 314.676 46.9271 314.281 50.6729 313.296ZM200.5 207C234.466 207 262 234.534 262 268.5C262 284.961 255.533 299.912 245 310.95L244.094 306.896C244.062 306.931 244.032 306.966 244 307C242.288 301.894 240.572 291.783 238.5 276.462C235.4 253.662 230.1 243.863 217.7 237.763C212.5 235.263 211 234.962 201 234.962C190.7 234.962 189.7 235.162 184.7 237.962C177.7 241.762 171.1 249.162 168.6 256.062C166.5 261.562 166.2 263.263 162.4 289.462C160.793 300.863 159.101 305.065 158 308L157.005 311.979C145.88 300.851 139 285.479 139 268.5C139 234.535 166.535 207 200.5 207ZM189.5 263.5C199.7 262.3 213.2 262.8 220.4 264.6L224.3 265.7L223.8 276.5C223.3 285.3 222.8 288.3 220.601 293.1C217.201 300.5 213.8 304.9 208.7 308.6C203.9 312.1 200.1 312.3 194.101 309.3C184.801 304.7 178.801 291.6 178.601 275.5C178.501 270.101 178.7 265.502 179 265.2C179.3 264.9 184 264.1 189.5 263.5ZM62.6006 295.654C62.7977 295.359 64.6711 296.443 66.6426 297.921C70.191 300.68 73.9368 305.804 73.9375 308.071C73.9375 312.309 65.0658 305.313 63.291 299.794C62.6998 297.725 62.4039 295.853 62.6006 295.654ZM126.875 300.779C129.241 300.484 131.508 300.385 131.804 300.779C132.69 301.568 130.127 304.327 125.987 306.89C122.34 309.255 115.342 310.141 115.341 308.368C115.341 306.299 122.833 301.371 126.875 300.779ZM36.7725 301.765C35.984 299.597 36.4773 299.498 42.3916 301.075C47.2216 302.258 53.2345 306.396 53.2354 308.466C53.2351 308.86 51.5601 309.255 49.4902 309.255C45.4485 309.255 37.9556 304.82 36.7725 301.765ZM104.892 299.794C104.004 302.159 102.328 305.313 101.047 306.692C99.7655 308.072 97.6957 309.255 96.5127 309.255C94.7383 309.255 94.5413 308.86 95.0342 306.692C96.1186 302.652 98.2874 299.892 102.428 297.625L106.37 295.358L104.892 299.794ZM114.848 295.457C114.355 300.779 113.763 302.257 111.595 304.031C110.116 305.312 108.638 306.298 108.243 306.298C104.99 306.297 107.455 297.428 111.989 292.697L115.439 289.051L114.848 295.457ZM56.0947 291.909C58.9533 294.669 61.122 299.596 61.1221 303.637C61.1221 305.903 59.7416 305.805 56.7842 303.144C54.8131 301.37 54.1237 299.595 53.6309 294.964L52.9404 289.051L56.0947 291.909ZM201.8 298.5C195.1 298.5 193.4 299.5 196.8 301.4C199.5 303 203.601 302.7 206.101 300.5L208.5 298.6L201.8 298.5ZM120.27 286.587C122.833 285.207 124.213 286.094 124.213 289.051C124.213 290.431 122.932 292.895 121.256 294.669L118.396 297.921L118.299 292.796C118.299 288.657 118.693 287.474 120.27 286.587ZM133.874 287.868C138.901 284.616 139 284.616 139 286.784C139 288.065 137.423 290.726 135.55 292.697C132.297 295.95 128.846 297.822 127.86 296.738C127.565 296.541 127.664 295.161 128.059 293.684C128.551 292.008 130.621 289.938 133.874 287.868ZM30.2666 287.868C29.6752 285.109 29.6757 285.109 34.5059 287.572C38.3503 289.543 41.4059 292.894 41.4062 295.161C41.4061 299.596 31.5481 292.993 30.2666 287.868ZM45.0537 288.559C45.8423 285.306 45.6454 285.405 48.7012 286.489C50.9681 287.376 51.2646 288.066 51.2646 292.008C51.2646 297.132 50.3768 297.526 46.9268 293.781C45.0542 291.811 44.5611 290.431 45.0537 288.559ZM220.2 270.3C218.6 268.7 209.3 269.1 206.4 271C203.4 272.9 202.5 276.2 202.5 284.8C202.5 291.1 202.4 291.5 200.3 291.5C197.8 291.5 197.2 293 199.3 293.8C201.2 294.6 202 294.6 204 293.5C205.7 292.6 205.8 291.7 205.3 286C204.3 275 207 271.5 216.8 271.5C220.3 271.5 221.1 271.2 220.2 270.3ZM118.299 242.237C118.89 242.241 119.284 249.732 119.284 262.836V283.335L112.285 284.025C102.92 284.912 91.5831 287.475 89.9072 289.15C88.1321 290.924 81.8238 290.924 79.2607 289.15C76.8945 287.475 64.0799 284.714 55.1094 283.926L48.6025 283.335L48.7012 263.131C48.7997 247.857 49.0955 242.83 50.0811 242.435C50.9682 242.139 51.2646 246.378 51.2646 261.259V280.378L61.9102 282.645C67.7264 283.827 74.431 285.701 76.7969 286.687C82.5139 289.15 86.4572 289.051 92.7656 286.193C97.596 284.025 101.737 283.039 113.665 281.167L117.312 280.575V261.456C117.313 249.334 117.707 242.238 118.299 242.237ZM45.251 245.786C46.0396 245.293 46.335 249.729 46.4336 260.668C46.6307 279.392 46.6316 279.393 44.7588 283.434C43.1818 286.784 43.0821 286.883 42.0967 285.897C40.8153 284.616 41.4065 280.674 43.1807 278.9C44.7579 277.324 44.8563 275.549 44.5605 261.751C44.2649 251.404 44.5611 246.181 45.251 245.786ZM126.579 279.886C126.875 279.59 127.367 280.181 127.762 281.068C128.55 283.039 126.875 287.473 125.89 285.897C125.2 284.912 125.692 280.773 126.579 279.886ZM115.341 277.717H111.793C109.821 277.717 105.483 278.408 102.131 279.295C98.8777 280.083 93.7513 282.054 90.9912 283.631C88.1334 285.109 85.7686 286.094 85.6689 285.799C85.6689 285.405 85.5693 276.337 85.5693 265.595C85.5693 251.995 85.9643 245.687 86.7529 244.701C88.8235 242.139 98.5822 239.282 107.06 238.69L115.341 238V277.717ZM61.7129 238.69C70.585 239.38 79.7531 242.238 81.9219 244.801C82.9076 246.082 83.3025 259.978 82.8096 283.434C82.8095 285.996 82.6118 285.996 76.9932 283.039C72.7543 280.772 66.8395 279.294 57.9678 278.21L53.2354 277.619V238L61.7129 238.69ZM135.057 279.195C136.93 277.421 137.028 277.521 137.028 279.295C137.028 280.379 136.535 281.757 135.846 282.447C135.156 283.137 134.268 283.631 133.874 283.631C132.396 283.631 133.085 280.969 135.057 279.195ZM32.4355 277.717C33.5201 277.718 36.4769 281.56 36.4775 282.842C36.4774 284.024 34.013 283.728 32.7314 282.447C31.3517 281.067 31.1544 277.717 32.4355 277.717ZM123.03 246.476C123.917 246.082 124.214 249.63 124.115 262.146C124.017 271.015 123.622 279.294 123.228 280.674C122.242 283.63 122.143 281.364 121.946 260.569C121.749 250.32 122.045 246.772 123.03 246.476ZM128.156 273.677C128.156 270.917 131.015 265.694 132.1 266.384C133.775 267.468 134.269 273.578 132.987 277.126C132.297 279.097 131.409 280.674 131.113 280.674C130.127 280.672 128.156 275.943 128.156 273.677ZM215.101 275.5C212.901 275.5 210.501 275.8 209.601 276.1C207.201 277 207.7 279.3 210.3 279.8C211.5 280 212.701 280.3 213.101 280.4C213.401 280.4 214.801 279.899 216.3 279.3C220.3 277.4 219.7 275.5 215.101 275.5ZM189.2 275.5C185.9 275.5 181.9 276.9 183 277.7C187.9 280.8 189.8 281.1 192.5 279.2C195.1 277.2 193.5 275.5 189.2 275.5ZM35.4912 270.918C35.4912 265.005 36.8713 263.822 38.9414 267.764C40.42 270.819 40.9133 275.352 39.8291 278.111C38.2519 282.349 35.4915 277.816 35.4912 270.918ZM336.5 227.5C336.7 227.5 337.4 229.2 338 231.3C338.7 233.3 340.1 237.6 341.2 240.7L343.2 246.4L363.5 247L355.8 252.5C351.501 255.499 348.002 258.499 348 259.1C348 259.6 349.1 263.9 350.4 268.5C351.8 273.2 352.7 277.099 352.5 277.3C352.3 277.6 348.7 275.2 344.5 272.1L337 266.4L331.7 270.1C328.9 272.2 325 275 323.2 276.4L319.9 278.8L320.601 275.9C321.001 274.3 322.4 269.9 323.7 266.1C324.9 262.3 326 259 326 258.8C325.994 258.695 322.296 255.897 317.8 252.8L309.5 247L329.9 246.4L333 237C334.699 231.802 336.299 227.503 336.5 227.5ZM79.8525 275.746C79.8522 272.691 62.896 267.567 58.46 269.242C55.7995 270.326 58.363 271.41 65.3613 272.198C68.5156 272.494 72.7539 273.677 74.7256 274.761C78.9645 276.929 79.8525 277.126 79.8525 275.746ZM106.765 271.312C112.679 270.425 111.299 268.454 105.286 269.242C96.6113 270.326 88.7247 273.578 88.7246 275.943C88.7247 276.535 89.5134 276.633 90.499 276.239C94.5408 274.465 103.314 271.804 106.765 271.312ZM196 272.5C196 270 188.101 268.4 183.101 270C179.501 271.1 180.8 272.3 185.3 271.8C187.6 271.5 190.6 271.8 192 272.4C195.2 273.7 196 273.7 196 272.5ZM105.778 263.427C113.566 262.54 113.172 260.569 105.188 261.16C98.4842 261.751 88.7249 265.398 88.7246 267.369C88.7248 268.256 90.4004 267.96 94.4414 266.384C97.4972 265.103 102.624 263.821 105.778 263.427ZM61.1221 260.963C55.8975 260.963 57.9684 262.737 64.4746 263.821C67.9245 264.413 72.458 265.595 74.5283 266.285C79.2601 268.059 79.8525 268.157 79.8525 266.876C79.8514 264.708 68.0223 260.963 61.1221 260.963ZM195.5 254.6C197.9 254.2 202.4 254.2 205.5 254.7C210.8 255.5 218.3 258.5 219.3 260.2C219.6 260.7 211.3 261 201 261C190.701 261 182.402 260.7 182.7 260.2C183.6 258.7 191.1 255.4 195.5 254.6ZM65.7559 253.571C58.8558 252.684 58.7565 252.685 58.3623 253.867C58.2648 254.36 60.9255 255.346 64.375 255.938C67.825 256.529 72.4579 257.711 74.5283 258.401C76.6955 259.189 78.4696 259.878 78.6689 259.879C78.7675 259.977 78.8662 259.386 78.8662 258.598C78.8651 256.824 72.7542 254.458 65.7559 253.571ZM106.666 253.079C99.7655 253.079 89.7102 256.43 89.71 258.696C89.71 259.78 90.203 259.977 91.4844 259.484C96.6105 257.218 100.653 256.133 105.681 255.542C111.891 254.754 112.482 253.079 106.666 253.079ZM71.375 246.771C63.588 244.8 58.8551 244.504 58.46 245.785C58.263 246.475 60.9253 247.363 65.2627 248.053C69.2058 248.743 73.8387 249.827 75.416 250.615C79.0631 252.192 79.8524 252.388 79.8525 251.206C79.852 249.629 77.1904 248.15 71.375 246.771ZM110.412 246.082C110.412 244.702 103.61 244.997 97.1035 246.673C91.2875 248.25 88.7246 249.63 88.7246 251.207C88.7245 252.29 88.4306 252.388 94.1465 250.221C96.9067 249.235 101.639 248.053 104.793 247.757C107.847 247.363 110.41 246.575 110.412 246.082ZM190.1 124.101C202.3 120.501 202.9 120.501 202.7 125.601C202.6 128 203 129.999 203.6 130.2C204.3 130.4 204.6 129.7 204.3 128.101L203.8 125.601L208.6 126.9C215.4 128.8 215.3 128.801 217.4 128.601C220.5 128.401 218.7 127.5 211.9 125.8C211.443 125.695 210.988 125.586 210.543 125.473C210.151 125.41 209.731 125.32 209.3 125.2C208.929 125.088 208.59 124.97 208.283 124.851C206.358 124.278 204.882 123.719 204.5 123.4C203.571 122.523 204.934 122.338 207.241 122.668C207.738 122.658 208.391 122.727 209.2 122.9C211.179 123.285 212.251 123.58 212.732 123.966C213.527 124.217 214.325 124.495 215.1 124.8C220.299 126.8 220.7 127.2 219.9 129.3C219.4 130.5 218.3 131.5 217.5 131.5C216.6 131.5 216.2 132 216.5 132.5C216.8 133.1 220.3 133.5 224.2 133.5C233.2 133.5 232.7 134.1 223.2 134.8C212.9 135.6 213 136.5 223.4 136.5C231.3 136.5 232.3 136.7 234.5 139C235.9 140.3 237 142.2 237 143.2C237 145.246 233.972 155.249 232.261 158.972C231.891 160.19 231.463 162.344 231.3 164.3C231.188 165.179 231.037 165.932 230.866 166.546C231.01 169.01 231.608 171.256 232.6 172C234.2 173.1 234.2 173.401 232.2 176.601C231 178.501 227.8 181.6 225.1 183.5C222.3 185.4 220.101 187.599 220 188.3C220 190.7 223.1 190.8 226.2 188.5C227.145 187.811 227.927 187.357 228.516 187.117C229.134 186.436 229.803 185.72 230.5 185C233.5 181.901 235.999 178.701 236 177.9C236 177.1 236.5 176.5 237 176.5C238.7 176.5 238.1 179 235.8 182.5C233.538 185.683 227.485 191.11 225.581 191.848C219.694 195.707 206.106 202.413 202.5 203C200.4 203.4 197.1 202.5 191.9 200.101C187.094 197.978 181.119 194.57 176.723 191.603C176.332 191.426 175.854 191.163 175.3 190.8C174.682 190.382 173.966 189.773 173.221 189.061C172.276 188.306 171.545 187.639 171.1 187.101C170.748 186.649 170.473 186.247 170.323 185.959C169.164 184.592 168.167 183.255 167.644 182.338C164.954 179.544 164.252 177.07 165.9 176.101C166.4 175.801 167.3 176.901 168 178.601C169.4 181.801 178.6 190.5 180.7 190.5C183.3 190.5 181.9 187.6 177.5 184.101C171.7 179.301 168.9 175.3 170 173.4C170.8 172.3 171.4 172.5 173.5 174.8C176 177.5 178 178.3 178 176.7C178 176.2 176.9 174.8 175.5 173.5C174.1 172.2 173 170.201 173 169.101C173 167.901 171.4 161.3 169.4 154.3C165.3 140.1 165.4 139.5 171.9 136.8C174.4 135.7 177.2 135.501 182.8 136.101C188.3 136.601 190.099 136.5 189.6 135.601C188.4 133.701 171.9 134.2 169 136.2L166.5 137.8L169 135.101C172.6 131.101 180.4 127.001 190.1 124.101ZM217.6 188.5C217.395 188.502 213.897 190.101 209.9 192C205.801 193.9 201.401 195.5 199.9 195.5C198.5 195.5 194.8 194.2 191.7 192.7C187.001 190.3 186 190.1 185.5 191.3C184.7 193.4 185.9 194.301 193.1 197.101C200.3 199.801 203.1 199.7 211.6 196.3C216.6 194.4 217.5 193.6 217.8 191.3C218 189.7 217.9 188.5 217.6 188.5ZM234.6 143.8C234.398 143.501 232.899 144 231.3 144.8C216.7 152.2 195.4 152.8 176.1 146.5C171.402 145.001 167.304 143.901 167.2 144C167 144.2 169.2 145.6 172 147C177 149.5 184.7 151.5 195.3 153L200 153.601V165.9C200 172.7 200.3 180.401 200.7 183.101L201.4 188L202.1 183C202.5 180.3 202.9 172.5 202.9 165.8L203 153.601L206.3 153.8C208 153.8 211.7 153.501 214.4 153.101C218.2 152.401 219.1 152.5 218.5 153.5C218.1 154.1 216.9 154.5 215.9 154.2C214.801 153.9 214 154.1 214 154.5C214 155 212.2 155.6 210 156C203.5 157.1 205.1 158.901 212 158.101C215.3 157.701 218 157.6 218 157.9C217.999 158.201 215.2 159.201 211.9 160.101C206.4 161.601 205.9 162.001 207.5 163.101C208.5 163.9 209.699 164.2 210.1 163.9C210.6 163.6 211.8 163.2 212.7 163C213.7 162.8 215.3 162.4 216.3 162C217.2 161.6 218 161.7 218 162.3C218 162.9 215.5 164.1 212.6 164.9C205.9 166.9 203.8 169.1 209.6 168C211.699 167.6 214.5 167.1 215.8 166.9C217.2 166.6 217.9 166.8 217.5 167.4C217.2 168 214.7 168.701 212 169.101C208.1 169.601 207.2 170.101 207.3 171.601C207.4 173.7 207.9 173.8 213.5 172.5C219.5 171.1 219 172.2 211.9 175.4C204.7 178.8 204.9 179.001 213.3 177.101C216.4 176.301 219 175.901 219 176.101C218.996 176.302 216.298 177.902 212.9 179.601C209.5 181.201 207 182.901 207.3 183.101C207.6 183.4 211.1 182.5 215.1 181.101C219.2 179.801 222.7 178.8 222.9 179C223.1 179.2 220.8 180.9 217.9 182.7C213.4 185.4 212.9 186.1 214.7 186.3C217.3 186.7 228.2 179.6 230.6 176C232.1 173.7 231.7 170.9 230 172C228.843 172.712 228.401 170.098 229.021 166.413C229.008 166.166 229 165.895 229 165.6C229 163.092 229.922 159.663 230.921 157.812C231.384 156.15 232.142 153.551 232.9 151C234.1 147.3 234.8 144 234.6 143.8ZM288.4 129C291.4 129 291.3 130.7 288 134.5L285 138L295.3 138.601C306 139.201 314.1 141.5 320.9 145.7C333.799 153.8 339.999 158.1 340 159C340 159.6 343.1 160.6 346.9 161.3C352.8 162.4 354.2 162.4 357.8 161C360 160.1 362.1 158.7 362.4 157.9C363.1 156 364.9 156.101 365.7 158.101C366.499 160.201 361 165.1 356.9 166C349.5 167.7 340.3 164.2 328.1 155.2C314.1 144.8 297.4 140.501 283 143.601C277.6 144.701 277.2 145.9 281.8 146.8C288.7 148.2 293.6 155.9 292 163C291 167.2 289.6 169.101 285.9 171.101C281.6 173.301 276.7 172.9 273.6 170C268.9 165.7 271.101 156.5 276.9 156.5C279.4 156.5 282 159.1 282 161.5C282 164.1 278.4 166 276.4 164.4C274.4 162.8 273.6 163.9 275 166.4C276.7 169.6 282.2 169.6 285.8 166.2C288.7 163.5 288.8 157.8 285.8 154C281.7 148.8 272.6 147 265.6 149.9C263.799 150.701 259.5 153.601 256 156.4C249.9 161.3 242.4 165.5 239.8 165.5C239.1 165.5 240.1 164.5 242.1 163.2C244.1 162 249.3 157.901 253.7 154.101C258.2 150.301 265.5 145.2 270.1 142.8C274.7 140.4 279.3 137.701 280.4 136.601C281.6 135.601 283.3 134.5 284.2 134.2C285.1 133.9 286 132.6 286.2 131.3C286.4 129.8 287.2 129 288.4 129ZM115.1 129.5C115.5 129.5 118.1 131.6 120.7 134.2C123.4 136.9 128.8 140.6 133 142.7C137.2 144.7 144.1 149.4 148.5 153.3C152.9 157.1 158.3 161.4 160.5 162.8C162.7 164.3 163.9 165.5 163.2 165.5C160.9 165.5 153.6 161.3 145.7 155.4C137.4 149.1 133.6 147.9 126.3 149C120.1 149.9 115 154.8 115 159.8C115 166.3 121.5 170.4 127.1 167.5C130.4 165.7 129.5 163.5 125.6 164.2C121.5 164.8 120.1 162.5 122.5 158.9C124.9 155.1 129.5 155.8 131.9 160.2C133.7 163.7 133.2 166.501 130.1 169.601C127 172.7 123 173.3 117.8 171.4C112.3 169.3 109.7 161.6 112.1 154.7C113.1 151.6 118.5 147.3 122.9 146C125.2 145.3 125.2 145.2 123.4 144.101C122.3 143.501 117 143.101 110.5 143.101C96.5001 143.201 90.3001 145.5 73.4004 156.5C57.1004 167.2 49.8998 168.8 41.2998 163.5C39 162.1 38 160.8 38 159C37.9999 157.6 37.3 156.2 36.5 155.9C34.7001 155.2 34.3999 147.001 36.0996 146C36.5996 145.6 37.5 144.3 38 143C39.0001 140.4 43.7999 139.101 48.7998 140.101C52.5998 140.901 53.5004 141.8 54.9004 147C56.4004 152.5 54.4001 155.5 49.2002 155.5C44.9002 155.5 43 154.1 43 151C43.0002 148.5 46.4004 145.301 48.4004 146.101C49.1004 146.401 50.2005 147.6 50.9004 148.8C51.9004 150.9 51.9002 150.8 51.7002 148C51.2001 141.5 42.2998 140.7 39.2998 147C37.8998 150 37.8996 150.801 39.0996 154.101C41.1996 159.5 45 162 51.2998 161.9C57.2998 161.8 61.8 159.8 73 152C87.9999 141.5 98.8999 137.8 111.8 138.9C115.7 139.2 119 139.3 119 139.2C119 139 117.7 137.401 116.1 135.601C113.4 132.601 112.9 129.5 115.1 129.5ZM292.2 146.5C293.9 146.5 300.6 151.101 303.2 154.101C307.4 158.901 309.8 170.5 306.5 170.5C305.7 170.5 303.6 169.2 301.7 167.601C299.5 165.601 298 163.1 297.3 160.3C296.7 157.9 295.9 155.1 295.5 154C294.9 152.4 295.4 152.6 297.8 154.9C299.599 156.6 300.999 157.5 301 157.101C301 155.201 298.5 152.2 294.8 149.5C292.5 147.8 291.4 146.5 292.2 146.5ZM87 159.601C89.6997 157.301 91.6999 156.101 91.4004 157C91.1005 157.8 90.4004 158.5 89.9004 158.5C89.4004 158.5 88.3 160 87.5 161.8L85.9004 165L90.0996 160L89.5996 163.5C89.2996 165.4 88.1003 167.8 86.9004 168.8C84.6004 170.6 79 171.1 79 169.5C79.0002 167.5 82.0003 163.8 87 159.601ZM314.9 157.3C313.101 154 315.4 156.1 319.9 161.8C322.1 164.799 324 167.899 324 168.8C324 170.7 321 171 317.3 169.5C315.8 168.9 314.7 167.2 314 164.3C313.4 161.9 312.7 159.4 312.5 158.8C311.8 156.7 312.9 157.3 315.5 160.3C316.8 161.8 318 162.5 318 161.8C318 161.2 317.6 160.3 317 160C316.5 159.7 315.5 158.5 314.9 157.3ZM109.3 147.601C113 146.201 112.7 146.7 108.1 150C105.9 151.5 103.6 154.1 103 155.8L102 158.9L105.5 155.5C107.4 153.6 109 152.6 109 153.2C109 153.9 108.6 154.6 108.1 154.9C107.699 155.202 106.7 157.401 106 159.9C104.7 164.6 100.9 168.9 97.2998 169.8C95.3 170.2 95 169.9 95 167.2C95.1 160.4 102.6 150.101 109.3 147.601ZM139 168C139 165.7 141.5 165.2 145.6 166.5C150 168 148.5 169.5 142.8 169.5C140 169.5 139 169.1 139 168ZM257.3 166.601C261.5 165.201 264 165.7 264 168C264 169.6 259.1 170.001 255.5 168.601C253.8 167.901 254.1 167.601 257.3 166.601ZM85.5 155C87.5 153.8 86.5 155.2 82.5 159.4C77.8001 164.2 75.5996 165.7 72.5996 166.2C69.7 166.7 68.8002 166.5 69.2002 165.5C69.4007 164.8 72.5003 162.6 76 160.5C79.6 158.5 83.9 156 85.5 155ZM321.8 156.601C326.9 158.701 334 163.901 334 165.601C333.999 166.8 331.099 166.7 327.8 165.2C326.3 164.5 323.3 161.9 321 159.3L316.9 154.601L321.8 156.601ZM132.2 153.3C134.2 152.1 134.501 152.201 141.7 157.601C152.8 166 152.7 166.6 141.5 160.9C132.9 156.4 130.4 154.5 132.2 153.3ZM269.6 152.5C271.9 152.5 272 154.2 269.7 156.2C266.9 158.7 251.802 165.399 254.1 163.101C256.299 160.901 268.597 152.502 269.6 152.5ZM356.6 140.5C363.3 140.5 365.6 141.6 366.5 145.2C366.8 146.7 367.6 148.301 368.2 148.601C368.7 148.901 369 150.301 368.8 151.601L368.4 154L367.3 151.5C365.4 146.9 360.4 142.5 357.3 142.5C353.9 142.5 352.7 143.3 351.1 146.3C350.4 147.7 350.2 149.101 350.8 150.101C351.6 151.5 351.8 151.3 352.4 149.2C353.2 145.7 355.8 145 358.1 147.7C361.6 152 359.9 155.5 354.3 155.5C351.7 155.5 350.7 154.9 349.5 152.5C347.6 148.8 347.6 147.6 349.6 143.7C351.1 140.7 351.5 140.5 356.6 140.5ZM336.6 151.601C336 150.601 339.9 149.301 341.2 150.101C341.6 150.401 342 151.001 342 151.601C341.999 152.8 337.3 152.8 336.6 151.601ZM61.5996 151.601C60.7997 150.401 63.5996 149.4 65.5996 150.2C66.8996 150.7 66.8998 150.901 65.7998 151.601C64.0999 152.7 62.2996 152.7 61.5996 151.601ZM249.2 122.101C255.3 117.801 264 123.101 264 131.101C264 136.501 258.399 145.7 252.6 149.8L249.5 151.9L252.1 148.5C256.6 142.5 259 136.8 259 132.2C259 125.2 254.9 123.3 249.7 128L247 130.601V127.101C247 124.601 247.6 123.201 249.2 122.101ZM144.1 121.9C147.7 120.1 149.4 120.101 153.1 122.101C155.7 123.401 156.1 124.1 155.8 127.3C155.6 130.3 155.1 131.1 153.3 131.3C151 131.6 150.6 130.9 150.9 127.4C151.2 124.9 148.4 124.4 145.9 126.4C142.048 129.552 142.948 136.843 147.862 144.516C148.456 145.226 149.087 146.127 149.742 147.201C149.893 147.4 150.044 147.601 150.2 147.8C154.245 152.785 152.185 152.462 147.848 147.745C147.422 147.329 146.966 146.846 146.5 146.3C146.119 145.851 145.794 145.431 145.525 145.05C137.595 135.163 136.923 125.678 144.1 121.9ZM152.5 138.101C155 135.601 156.5 136.601 156.7 141.101C156.8 144.2 156.7 144.5 156.1 142.5C155.5 140.3 155.3 140.2 154.7 141.8C154.3 142.8 154.7 145.201 155.5 147.101C157.2 151.2 156.8 151.4 154.1 147.7C151.1 143.5 150.6 140.101 152.5 138.101ZM180.6 138.5C172.9 138.5 170.201 139.4 171.7 141.8C173.5 144.7 189.2 148.2 201 148.4C204.6 148.4 210.4 148 214 147.5C225.6 145.6 233.8 142 231.6 139.7C230.897 139.1 219.595 138.8 180.6 138.5ZM319.8 133.101C327.4 133.001 328.3 133.2 330.1 135.4C332 137.7 332.8 145.5 331.2 145.5C330.8 145.5 328.7 144.5 326.5 143.4C324.3 142.2 321.7 140.7 320.7 140C318.9 138.7 318.9 138.7 320.7 138.3C322.599 137.9 313.5 135.5 309.7 135.5C307.6 135.4 307.6 135.4 309.4 134.3C310.501 133.7 315.2 133.101 319.8 133.101ZM74.9678 133.671C76.2944 132.663 77.2489 132.364 77.959 132.828C79.6679 132.668 81.9415 132.762 85 133C93.5 133.6 99.5 135.4 93.5 135.5C88.2006 135.6 82.8012 136.7 84.0996 137.5C84.8996 138 83.4003 139.4 79.9004 141.4C79.2839 141.749 78.7112 142.066 78.1826 142.356C77.6072 142.762 77.0429 143.057 76.5098 143.248C72.1003 145.489 71.7406 144.583 72.4004 139.8C72.8321 136.538 73.3788 134.657 74.9678 133.671ZM131.2 132.5C132.1 129.6 133.8 130.6 134.2 134.2C134.8 138.3 134.7 138.8 133.7 137.8C133.3 137.5 133 136.1 133 134.8C133 133.3 132.6 132.601 131.9 133.101C131.2 133.501 130.9 133.2 131.2 132.5ZM122 128.2C122 126.6 122.1 126.6 124 128.2C125.1 129.2 126 130.5 126 131.3C126 132 126.5 132.3 127 132C127.6 131.7 128 132.3 128 133.4C128 136.1 127.9 136 124.7 132.7C123.2 131.2 122 129.1 122 128.2ZM88 118.2C88 112.4 93.9996 113.7 98.5996 120.5C100.2 122.8 102.9 126.3 104.5 128.3L107.5 131.9L102.6 128.101C96.3997 123.401 95.1 124.501 101 129.601C106.8 134.6 105 134.601 97.2998 129.601C90.3998 125.101 88 122.2 88 118.2ZM220 131.5C220 130.2 224 130.2 226 131.5C227.1 132.2 226.5 132.5 223.8 132.5C221.7 132.5 220 132.1 220 131.5ZM310.6 115.5C313.5 114.3 316.5 116.501 315.6 119.101C314.799 121.801 310.3 126.4 305.4 129.8C299.8 133.6 298.7 133.1 303.5 129C308.7 124.6 307.6 123.701 301.6 127.601L296.8 130.601L299.1 126.8C301.9 122.3 307.7 116.6 310.6 115.5ZM198 127.3C198 126.7 197 127.1 195.8 128.2C194.5 129.3 192.8 130.5 192 130.8C190.7 131.3 190.7 131.4 192 131.4C192.9 131.5 194.6 130.8 195.8 129.9C197 129.1 198 127.9 198 127.3ZM174.9 101C178.7 94.6005 179 94.3001 179 97.0996C179 98.7996 178 102.4 176.8 105.1C175.2 108.6 174.5 112.2 174.4 117.8C174.2 125.4 173.1 128.5 170.5 128.5C169.7 128.5 168.9 126.6 168.6 123.8C167.7 117.4 169.9 109.7 174.9 101ZM272 107.5C274.7 105.2 280.2 104.9 282.3 107C283.1 107.7 284.9 108.7 286.3 109C288.1 109.5 289.1 110.6 289.5 112.7C289.9 114.3 290.8 115.9 291.6 116.2C293.1 116.8 293.4 123.5 292.1 127C291.4 128.6 291.2 128.4 290.7 125.601C290.3 123.701 290 121.4 290 120.3C290 118.3 289.399 117.299 284.3 111.8C281.4 108.6 280.6 108.3 277.4 108.8C272.9 109.6 270 112 270 115.2C270 117.3 270.4 117.6 273.8 117.3C277.2 117 277.5 117.2 277.8 119.7C278.1 121.9 277.8 122.4 276.6 121.9C274.4 121.101 272.4 122.501 274.1 123.601C275.2 124.301 275.1 124.5 273.7 124.5C272.7 124.5 271.7 123.8 271.4 123C271 122.2 270 121.5 268.9 121.5C266 121.5 265 118.5 266.2 113.7C266.8 111.4 267.8 109.5 268.5 109.5C269.1 109.5 270.7 108.6 272 107.5ZM223 96C223 94.1 223.2 94.2 225 96.5C228.4 100.9 232.8 110.8 233.5 115.7C234.8 124.5 232.4 130.1 229.1 126.1C228.4 125.299 227.8 121.399 227.6 117.3C227.4 113.2 226.3 107.4 225.1 104C224 100.8 223 97.2 223 96ZM110.6 120.101C111.6 117.401 113 118.3 113 121.8C113 125.3 111.8 127.9 110.7 126.8C109.8 126 109.8 122.201 110.6 120.101ZM170.7 94.7002C175.2 89.3004 176 88.7 176 90.7998C176 92.0997 174.8 95.3997 173.4 98.0996C171.9 100.8 169.8 104.7 168.7 106.8C167.4 109.3 166.5 113.6 166.1 118.6L165.5 126.6L163.5 123.3C160.9 118.9 160.9 109.4 163.4 104.5C164.5 102.6 167.7 98.2001 170.7 94.7002ZM226.6 88.5C227.1 88.6 228.9 90.3997 230.5 92.5996C239.1 104.1 239.9 105.6 240.5 111C241.3 117.2 240.8 120 238.2 123.4L236.3 125.7L236.1 119.9C235.9 111.9 234.4 107 230.4 100.5C227.001 95.0005 225 88.5011 226.6 88.5ZM179.6 105.4C182.5 99.0005 182.3 99.0001 185.6 105.3C185.9 106 185.5 108 184.6 109.9C183.7 111.801 183 115.401 183 117.9C183 121.4 182.5 122.7 181.1 123.5C178.8 124.7 178.5 124.7 177.7 123.8C175.9 122.1 177.1 111.101 179.6 105.4ZM118 107.601C125.4 103.801 130.4 104.6 135.5 110.7C138.7 114.5 138.4 118.8 134.4 122.3C131.4 124.9 128.8 125.1 126.6 122.9C124.7 121.1 124.5 117.4 126.2 115.7C127.8 114.1 129.5 114.201 131.4 116.101C132.9 117.5 133 117.4 133 115.2C133 112.5 130.6 110.1 127.1 109.2C124 108.401 118.5 110.701 116.8 113.4C115 116.3 114 116 114 112.601C114 110.201 114.7 109.301 118 107.601ZM220.1 100.5C221.8 100.5 224.5 110.3 224.5 116.4C224.5 122.9 224 123.6 220.7 122.8C219.3 122.4 218.9 121.7 219.3 119.8C219.5 118.5 219.1 114.7 218.2 111.4C217 106.401 216.9 105 218 102.9C218.7 101.601 219.699 100.501 220.1 100.5ZM214.7 109.8C216.3 112.999 217.6 121.499 216.4 121.4C215.9 121.4 214.4 120.9 213.1 120.4C211.4 119.7 210.9 118.9 211.3 117.2C211.6 116 212.2 113.2 212.6 111.1L213.3 107.2L214.7 109.8ZM188.1 109.5C190 109.5 191.3 114.3 190.4 117.7C189.2 121.8 186.3 122.6 185.4 119.1C184.701 116.3 186.6 109.501 188.1 109.5ZM193 117.5C193 116 193.5 115.5 194.8 115.7C195.7 115.9 196.5 116.7 196.5 117.5C196.5 118.3 195.7 119.1 194.8 119.3C193.5 119.5 193 119 193 117.5ZM102.9 113.2C103.6 112.5 104.2 112.7 104.6 113.9C105 114.9 104.8 116.101 104.3 116.601C103.6 117.3 103 117.1 102.6 115.9C102.2 114.9 102.4 113.7 102.9 113.2ZM167.1 86.5996C172.3 82.1996 173.6 81.4004 173.8 82.9004C174.199 84.7005 171.999 88.2009 165.1 96.9004C162.9 99.6005 160.3 104.501 159.2 107.9L157.3 114L156.5 110.2C154.8 101.5 158 94.2996 167.1 86.5996ZM194.2 104.4C196.8 103 205.3 103.1 208 104.5C210.7 105.9 210.5 110 207.8 111.9C205.6 113.5 200 113.9 197 112.8C192.1 111 190.5 106.4 194.2 104.4ZM228.8 81.5C229.2 81.5 232.3 83.9997 235.8 87.0996C243.5 93.9996 246 98.6002 246 105.7C246 113.8 244.6 114.5 242.7 107.6C241.6 103.6 239.5 99.7999 236.5 96C229.4 87.4002 226.3 81.5003 228.8 81.5ZM207.7 63.4004C212.4 62.5004 214.6 62.3998 216.4 63.2998C219.7 64.8 224.1 71.8001 224.7 76.5C225.1 79.5999 224.7 80.7999 222 83.7998C219.9 86.2998 219 88.0004 219.5 89.4004C219.8 90.4007 219.3 93.2007 218.4 95.4004C216.4 100.5 212.8 102.6 208.4 101.4C206.7 100.9 204.5 99.6 203.5 98.5C201.6 96.4 201.6 96.3 206.7 91.5C211.6 86.6002 211.7 86.4 211.2 81.7002L210.8 76.7998L214.4 76.0996C216.4 75.6996 218 75 218 74.5C218 73.6 216.8 73.1996 210.1 72.0996L206.8 71.5L207.5 76.0996C207.8 78.6994 208.6 81.7995 209.2 83.0996C209.8 84.3996 210.1 85.7004 209.9 85.9004C209.7 86.1004 205.6 86.4996 200.8 86.5996C193.101 86.9996 192.3 86.7999 193.1 85.4004C194 83.6004 196 72.1996 195.5 71.5996C195.3 71.4998 194.5 71.6997 193.8 72.0996C193.1 72.5996 191 73 189.1 73C184.6 73.0001 184 75.1998 188.2 76.2998C191.4 77.1998 191.5 77.3002 191.2 82.2002C191 87 191.2 87.3 195.5 91.2998C198 93.4998 200 95.8004 200 96.4004C199.999 98.6004 194.599 101.6 191.1 101.3C186.8 100.9 183 95.9999 183 90.7002C183 88.3003 182.1 86.2001 179.9 83.7002C177.3 80.8002 176.9 79.6001 177.4 76.7002C178 72.5003 182.1 66.2005 185.5 63.9004C187.7 62.4004 188.8 62.4 193.8 63.5C200.7 64.9 200.1 64.9004 207.7 63.4004ZM229.7 75.4004C230.5 74.6004 232.6 75.5 237.4 79C245.6 84.8997 247.7 87.5 248.6 93.0996C249.4 98.7996 248.6 99.5998 246.4 95.2998C245.5 93.4998 241.1 88.5001 236.7 84.2002C230.8 78.6004 228.9 76.2005 229.7 75.4004ZM157.7 84.2998C163 79.1999 171.2 74.3 172.4 75.5C173.2 76.3002 171.099 78.9003 164.8 84.7998C160.1 89.2996 155.9 93.9995 155.5 95.2998C154.7 97.8998 153 98.2998 153 95.7998C153 91.8998 155.1 86.6998 157.7 84.2998ZM234.4 69C235.7 67.2002 235.9 67.2003 238.6 70.5C241.3 73.6 246.5 81.5 245.8 81.5C245.599 81.3993 242.799 79.4997 239.6 77.2002C232.9 72.5003 232.4 71.7 234.4 69ZM164.5 70C166.6 67.5 167.2 67.2 168 68.5C169.7 71.2 169.1 72.4 164.3 76C158.3 80.2999 157.5 80.3998 160 76.2998C161.1 74.4998 163.2 71.7 164.5 70ZM226.6 56.5C229 56.5 233 60.7002 233 63.2002C233 65.0005 228.9 72.5 228 72.5C227.6 72.5 226.5 70.7 225.5 68.5C223.7 64.6 223.7 64.3996 225.6 63.0996C228.2 61.0996 226.6 59.9005 223.4 61.4004C221.7 62.1004 220.3 62.2002 219.8 61.7002C218.5 60.4003 223.7 56.5003 226.6 56.5ZM172.2 58.4004C175 55.9004 178.5 56 181 58.5C183.7 61.2 182.7 62.5998 178.7 61.7998C175.8 61.1998 175.6 61.2998 176.9 62.7998C178.3 64.5998 177.9 67.9004 175.7 70.9004C174.4 72.7002 174.2 72.5999 172.2 69.7002C169.3 65.8002 169.3 60.8004 172.2 58.4004ZM184.8 51.5C186.4 51.5 192 56.9004 192 58.4004C191.999 60.5999 185.4 59.5998 183 57C181.7 55.6 179.9 54.5004 179.1 54.4004C177.301 54.3001 182.7 51.6001 184.8 51.5ZM200.5 49.5C203 49.5 203.2 49.6999 202.6 52.5996C202.3 54.2994 202 56.5994 202 57.5996C202 59.4996 200.5 60.1998 199.7 58.7998C199.4 58.2997 198.9 56.0997 198.5 53.7998C197.8 49.6 197.9 49.5 200.5 49.5ZM213.8 53.2998C215.7 51.9999 216.9 51.8999 220.1 52.7998L224.1 53.7998L221.2 55.5996C219.5 56.4996 217.9 57.8004 217.6 58.4004C216.798 59.6 209 59.8997 209 58.7998C209.1 57.5997 211.3 55.0997 213.8 53.2998ZM191.9 49.5C194 49.5002 195.2 51.4004 196.6 57C197.6 60.8 195.8 59.9001 193 55.2002C189.6 49.4002 189.6 49.5 191.9 49.5ZM209 49.5C211.7 49.5 211.5 50.2 208 55.5C205.2 59.7 205 59.7998 205 57.2998C205 52.8999 206.7 49.5 209 49.5ZM194.5 40.7998C210.799 40.1998 226.399 41.4997 228.5 43.5996C229.2 44.3996 227.2 44.3998 221.5 43.7998C211.3 42.7998 187.2 42.7998 179.8 43.7998C176.2 44.2997 174 44.3 174 43.7002C174 42.0002 178.1 41.3998 194.5 40.7998ZM201.8 28.5C206.8 28.5 214.5 29.2 219.1 30C233.3 32.6 232.3 32.1002 231.7 36.2002C231.3 38.0994 230.9 39.8984 230.8 40.0996C230.6 40.2996 226.8 39.8 222.5 39C209.7 36.7 184.7 37.2996 173.5 40.0996C171.6 40.5996 171.2 40.2 170.7 36.9004C170.3 34.5004 170.5 32.8004 171.2 32.4004C173.4 31.0004 193.1 28.5 201.8 28.5ZM226 34C224.5 33.1 221.7 34.3 222.5 35.5C223.3 36.8 227 36.7996 227 35.5996C227 34.9997 226.5 34.2999 226 34ZM178.1 33.5C176.9 33.5001 176 34.1 176 35.0996C176 36.8996 179.1 36.5998 179.8 34.7998C180 33.9999 179.3 33.5 178.1 33.5ZM216 33.5C216 32.1 212.7 31.4 211.6 32.5C210.8 33.2999 210.9 33.8004 211.9 34.4004C213.4 35.4 216 34.7999 216 33.5ZM204 33C204 31 202.2 30.2001 199.2 31L196.5 31.7002L198.8 33.5C201.2 35.5 204 35.2 204 33ZM191.4 33.5996C192.099 32.4999 189.2 31.3003 187.9 32.0996C187.401 32.3995 187 32.9997 187 33.5996C187 34.7996 190.7 34.7996 191.4 33.5996ZM200.5 0C202.2 0 202.5 0.799954 202.8 4.59961C203.1 9.19961 203.1 9.19961 206.7 9.09961C209.8 8.99963 210.4 9.40024 211.1 11.7002C211.6 13.6001 211.4 14.8002 210.2 15.7002C209 16.7002 208.6 16.6998 208.3 15.7998C207.6 13.8001 204.3 14.3005 203.7 16.4004C203.2 18.4004 204.601 21.4003 206.9 23.2002C209.3 25.0999 213.401 24.7003 216.4 22.4004C217.9 21.2004 219.2 20.3997 219.4 20.5996C219.6 20.7996 220.3 21.9998 220.9 23.2998C222.6 26.4997 226.6 27.8998 230.1 26.5C234.499 24.7 235.2 19.7004 230.9 21C228.5 21.8 228.3 19 230.5 16.5C232.9 13.8 237 15.1004 237 18.4004C237 19.9002 236.3 21.9996 235.5 23.0996C234.7 24.0995 234 25.7998 234 26.7998C234 29.5998 231.6 29.8996 222.2 28.0996C204.9 24.8996 187.7 25.5996 171 30.0996C170.2 30.2996 168.9 29.6 168.2 28.5C167.6 27.4001 167 25.5002 167 24.2002C167 22.9814 166.209 21.2347 165.204 20.1973L164.796 19.8027C163.791 18.765 163 17.0127 163 15.7002C163 13.3002 163.1 13.3004 165.5 14.9004C166.8 15.8003 169.1 16.5 170.5 16.5C173.8 16.5 173.8 19.2 170.5 20.5C167.4 21.7 167.4 22.5999 170.3 25.2998C173.7 28.4997 176.7 28.1 180.6 23.9004C183.7 20.7004 184.1 20.5004 185.6 21.9004C187.8 24.1004 191.7 24.8998 194.3 23.7998C197 22.4998 199.5 18.1996 198.7 16.0996C198 14.5 194 15.0001 194 16.7998C194 17.3998 193.3 17.2002 192.5 16.4004C191.3 15.2004 191.1 14.3002 191.9 12.2002C192.8 9.80024 193.5 9.40002 196.8 9.5C197.2 9.5 197.7 7.3998 198 4.7998C198.4 0.799975 198.8 0 200.5 0ZM182.4 15.5996C183.4 14.7 183.9 14.8005 184.3 15.9004C185.2 18.1002 182.8 19.5995 181.6 17.5996C181.3 17.0995 181.601 16.1994 182.4 15.5996ZM218.3 16.9004C217.5 14.8004 219.6 12.7004 221.1 14.2002C222.4 15.5002 221.6 18.5 220 18.5C219.4 18.5 218.7 17.8003 218.3 16.9004ZM240.1 12.5C240.6 12.5 241 13.2 241 14C241 15.4999 239.8 16 238.7 14.9004C237.9 14.1005 238.8 12.5003 240.1 12.5Z" fill="#CEAD44"/>
</svg>
